<svg width="32" height="32" viewBox="0 0 32 32" fill="none" xmlns="http://www.w3.org/2000/svg">
<path d="M2 16H30V26H2V16Z" fill="#85A98F"/>
<rect x="2" y="19" width="28" height="1" fill="#748C7B"/>
<path d="M2 8C2 6.89543 2.89543 6 4 6H30V19H2V8Z" fill="#CCCFD4"/>
<path d="M14.8675 13.2697C14.8288 12.8681 14.6483 12.5108 14.3919 12.3225C14.3488 12.1657 14.2737 12.0195 14.1712 11.8933C14.1377 11.548 13.9693 11.2299 13.7026 11.0081C13.7462 10.9706 13.7829 10.9259 13.8111 10.8759C14.1223 10.7369 14.3417 10.445 14.3672 10.2279C14.5237 10.0823 14.6197 9.88322 14.6362 9.67011C14.6409 9.58378 14.6246 9.4976 14.5886 9.41899C14.6536 9.35694 14.6998 9.27779 14.7218 9.19066C14.7438 9.10353 14.7407 9.01195 14.713 8.92648C14.62 8.65733 14.2945 8.48262 13.8572 8.46409C13.7247 8.35154 13.5545 8.29326 13.3807 8.30094C13.294 8.30133 13.2077 8.31196 13.1235 8.3326C13.0441 8.29695 12.9577 8.27946 12.8707 8.2814C12.7013 8.28321 12.5352 8.32848 12.3883 8.41288C12.369 8.41035 12.3495 8.40909 12.3301 8.40911C12.113 8.40909 11.896 8.55868 11.786 8.64783C11.6785 8.73477 11.5825 8.83487 11.5 8.94577C11.4175 8.83488 11.3215 8.73479 11.214 8.64785C11.104 8.5587 10.887 8.40913 10.67 8.40911C10.6505 8.40909 10.631 8.41035 10.6117 8.41288C10.4648 8.3285 10.2988 8.28322 10.1294 8.2814C10.0423 8.27946 9.95593 8.29695 9.8765 8.3326C9.7923 8.31196 9.70596 8.30133 9.61927 8.30094C9.44554 8.29326 9.27533 8.35154 9.14278 8.46409C8.70548 8.48262 8.37994 8.65733 8.28702 8.9265C8.25927 9.01197 8.25621 9.10354 8.27822 9.19067C8.30022 9.2778 8.34638 9.35694 8.41138 9.41899C8.37541 9.49761 8.35909 9.5838 8.36382 9.67012C8.38031 9.88323 8.47633 10.0823 8.63283 10.2279C8.65828 10.445 8.8777 10.7369 9.18892 10.8759C9.21713 10.9259 9.25383 10.9706 9.29739 11.0081C9.03072 11.2299 8.86235 11.548 8.82884 11.8933C8.72634 12.0195 8.65118 12.1657 8.60812 12.3225C8.35173 12.5108 8.17118 12.8681 8.13255 13.2697C8.09415 13.6689 8.20367 14.0416 8.42658 14.2777C8.46652 14.4784 8.54919 14.6682 8.66896 14.8342C8.69572 15.1481 8.82409 15.4447 9.0346 15.6791C9.24508 15.921 9.52771 16.089 9.84085 16.1582C10.0276 16.3321 10.2467 16.4677 10.4857 16.5574C10.6203 16.687 10.7793 16.7887 10.9533 16.8567C11.1274 16.9247 11.3132 16.9577 11.5 16.9537C11.6868 16.9577 11.8726 16.9247 12.0467 16.8567C12.2207 16.7887 12.3796 16.6869 12.5143 16.5574C12.7533 16.4677 12.9724 16.3321 13.1591 16.1582C13.4723 16.089 13.7549 15.921 13.9654 15.6791C14.1759 15.4447 14.3043 15.1481 14.331 14.8343C14.4508 14.6683 14.5335 14.4784 14.5734 14.2777C14.7963 14.0416 14.9058 13.6689 14.8675 13.2697Z" fill="black"/>
<path d="M12.3174 8.86308C12.3228 8.86153 12.3285 8.86133 12.3341 8.8625C12.3396 8.86366 12.3447 8.86616 12.349 8.86978C12.3534 8.87339 12.3567 8.87801 12.3588 8.88323C12.361 8.88845 12.3618 8.89411 12.3612 8.89971C12.3503 9.00285 12.4127 8.98986 12.4274 8.97153C12.5899 8.76956 12.7619 8.72361 12.9159 8.73718C12.9221 8.73781 12.9279 8.74008 12.9329 8.74374C12.9379 8.74741 12.9418 8.75234 12.9442 8.75802C12.9466 8.7637 12.9474 8.76992 12.9466 8.77604C12.9458 8.78216 12.9433 8.78794 12.9395 8.7928C12.8783 8.88358 12.9442 8.90084 12.9686 8.88454C13.2186 8.72823 13.4571 8.72795 13.5486 8.7936C13.5527 8.79667 13.5561 8.80063 13.5585 8.80518C13.5609 8.80972 13.5622 8.81475 13.5624 8.81988C13.5626 8.82501 13.5617 8.83012 13.5596 8.83484C13.5576 8.83956 13.5545 8.84376 13.5507 8.84714C13.4582 8.92595 13.5099 8.96519 13.5426 8.95322C13.7964 8.86366 14.1468 8.94289 14.269 9.04624C14.2729 9.04943 14.276 9.05342 14.2781 9.05792C14.2803 9.06242 14.2814 9.06733 14.2815 9.07232C14.2816 9.07731 14.2806 9.08226 14.2786 9.08683C14.2766 9.0914 14.2736 9.09548 14.2699 9.09881C14.1972 9.15439 14.1363 9.2239 14.0908 9.30328C14.0453 9.38266 14.0161 9.47032 14.0049 9.56113C13.998 9.62191 14.0989 9.60913 14.1414 9.59817C14.1464 9.5969 14.1516 9.59677 14.1567 9.59778C14.1617 9.59878 14.1665 9.60091 14.1706 9.604C14.1747 9.60708 14.1781 9.61105 14.1805 9.61562C14.1828 9.62018 14.1842 9.62522 14.1844 9.63036C14.1882 9.77647 14.05 9.93708 13.8444 10.0744C13.8169 10.0928 13.8208 10.137 13.8836 10.1386C13.8896 10.1386 13.8955 10.1402 13.9007 10.1432C13.9058 10.1462 13.9101 10.1506 13.9131 10.1558C13.9161 10.161 13.9176 10.1669 13.9176 10.1728C13.9175 10.1788 13.9159 10.1847 13.9129 10.1899C13.8396 10.326 13.7399 10.4541 13.4003 10.5421C13.3932 10.5439 13.387 10.5479 13.3824 10.5535C13.3777 10.5591 13.3749 10.566 13.3744 10.5732C13.3739 10.5804 13.3756 10.5876 13.3794 10.5938C13.3832 10.6 13.3888 10.6049 13.3955 10.6077C13.4015 10.6094 13.4069 10.6127 13.4111 10.6173C13.4153 10.6219 13.4181 10.6276 13.4192 10.6338C13.4204 10.6399 13.4198 10.6462 13.4175 10.652C13.4152 10.6578 13.4113 10.6629 13.4063 10.6666C13.0682 10.9571 12.2111 10.8425 12.1023 10.3536C12.1012 10.3488 12.1012 10.3438 12.1023 10.339C12.1034 10.3341 12.1055 10.3296 12.1085 10.3256C12.4723 9.83981 12.9645 9.46526 13.5298 9.24421C13.536 9.24186 13.5412 9.23729 13.5442 9.23138C13.5473 9.22547 13.5481 9.21864 13.5464 9.21219C13.5448 9.20574 13.5408 9.20013 13.5353 9.19643C13.5297 9.19274 13.523 9.19122 13.5164 9.19217C13.2101 9.23669 12.9158 9.34194 12.6508 9.50174C12.3857 9.66153 12.1552 9.87266 11.9728 10.1227C11.9679 10.1294 11.9607 10.1341 11.9526 10.1359C11.9445 10.1378 11.936 10.1367 11.9286 10.1328C11.3792 9.84911 11.8304 9.01156 12.3174 8.86308Z" fill="#46AF4B"/>
<path d="M9.08713 10.1899C9.0841 10.1847 9.08248 10.1788 9.08244 10.1728C9.0824 10.1669 9.08395 10.161 9.08691 10.1558C9.08988 10.1506 9.09416 10.1462 9.09933 10.1432C9.1045 10.1402 9.11038 10.1386 9.11637 10.1386C9.17922 10.137 9.18313 10.0928 9.15559 10.0744C8.94999 9.93708 8.81181 9.77647 8.81565 9.63036C8.81583 9.62522 8.81716 9.62018 8.81955 9.61562C8.82193 9.61105 8.82531 9.60708 8.82942 9.604C8.83354 9.60091 8.8383 9.59878 8.84335 9.59778C8.8484 9.59677 8.85361 9.5969 8.85859 9.59817C8.90115 9.60913 9.00203 9.62191 8.99513 9.56113C8.9839 9.47032 8.95467 9.38266 8.90917 9.30328C8.86366 9.2239 8.80279 9.15439 8.73011 9.09881C8.72639 9.09548 8.72342 9.0914 8.72142 9.08683C8.71942 9.08226 8.71843 9.07731 8.71851 9.07232C8.71859 9.06734 8.71975 9.06242 8.7219 9.05792C8.72405 9.05342 8.72714 9.04943 8.73097 9.04624C8.8532 8.9429 9.20359 8.86366 9.45739 8.95322C9.49006 8.96519 9.54185 8.92595 9.44934 8.84714C9.44547 8.84376 9.44241 8.83956 9.44037 8.83484C9.43834 8.83012 9.43738 8.82501 9.43758 8.81988C9.43777 8.81475 9.43911 8.80972 9.4415 8.80518C9.44389 8.80063 9.44727 8.79668 9.45138 8.7936C9.54292 8.72795 9.78138 8.72824 10.0314 8.88454C10.0558 8.90084 10.1217 8.88358 10.0605 8.7928C10.0567 8.78795 10.0542 8.78216 10.0534 8.77604C10.0526 8.76993 10.0534 8.7637 10.0558 8.75802C10.0583 8.75234 10.0621 8.74741 10.0671 8.74374C10.0721 8.74008 10.0779 8.73781 10.0841 8.73718C10.2381 8.72361 10.4102 8.76956 10.5726 8.97153C10.5873 8.98986 10.6497 9.00285 10.6388 8.89971C10.6382 8.89411 10.639 8.88845 10.6412 8.88323C10.6433 8.87801 10.6467 8.87339 10.651 8.86978C10.6553 8.86617 10.6604 8.86367 10.666 8.8625C10.6715 8.86133 10.6772 8.86153 10.6826 8.86308C11.1697 9.01156 11.6208 9.84911 11.0714 10.1328C11.064 10.1367 11.0555 10.1378 11.0474 10.1359C11.0393 10.1341 11.0321 10.1294 11.0272 10.1227C10.8448 9.87266 10.6143 9.66153 10.3493 9.50173C10.0842 9.34194 9.78989 9.23669 9.4836 9.19217C9.47701 9.19122 9.4703 9.19274 9.46476 9.19643C9.45921 9.20012 9.45523 9.20573 9.45357 9.21218C9.45191 9.21863 9.45269 9.22547 9.45577 9.23138C9.45884 9.23729 9.46398 9.24185 9.47021 9.2442C10.0355 9.46525 10.5278 9.83981 10.8916 10.3256C10.8945 10.3296 10.8966 10.3341 10.8977 10.339C10.8988 10.3438 10.8988 10.3488 10.8977 10.3536C10.7889 10.8425 9.93184 10.957 9.59371 10.6666C9.5887 10.6629 9.58483 10.6578 9.58254 10.652C9.58026 10.6462 9.57964 10.6399 9.58077 10.6338C9.5819 10.6276 9.58473 10.6219 9.58893 10.6173C9.59313 10.6127 9.59854 10.6094 9.60455 10.6077C9.61122 10.6049 9.61683 10.6 9.6206 10.5938C9.62437 10.5876 9.62612 10.5804 9.62559 10.5732C9.62506 10.566 9.62229 10.5591 9.61766 10.5535C9.61303 10.5479 9.60677 10.5439 9.59976 10.5421C9.26016 10.4541 9.16044 10.326 9.08713 10.1899Z" fill="#46AF4B"/>
<path d="M13.6645 11.6848C13.8054 12.0596 13.6956 12.2398 13.3614 12.049C13.0918 11.8999 12.8535 11.7001 12.6595 11.4607C12.4078 11.1616 12.5714 11.0284 12.9679 11.1002C13.1198 11.1405 13.261 11.2138 13.3814 11.3149C13.5018 11.4159 13.5984 11.5422 13.6645 11.6848Z" fill="#CD2355"/>
<path d="M12.1655 11.2632C12.6434 11.6604 12.0958 11.9416 11.4999 11.9416C10.904 11.9416 10.3564 11.6604 10.8343 11.2632C11.023 11.1116 11.2578 11.0289 11.4999 11.0289C11.742 11.0289 11.9768 11.1116 12.1655 11.2632Z" fill="#CD2355"/>
<path d="M9.33538 11.6848C9.40143 11.5422 9.49809 11.4159 9.61847 11.3149C9.73886 11.2138 9.88002 11.1405 10.0319 11.1002C10.4285 11.0284 10.5921 11.1616 10.3403 11.4607C10.1464 11.7001 9.90807 11.8999 9.63844 12.049C9.30425 12.2398 9.1945 12.0596 9.33538 11.6848Z" fill="#CD2355"/>
<path d="M8.6442 13.7675C8.58938 13.6193 8.56807 13.4608 8.58181 13.3033C8.59554 13.1459 8.64397 12.9935 8.72363 12.857C8.9002 12.5566 9.07792 12.5685 9.14846 12.823C9.23806 13.174 9.20562 13.5451 9.05646 13.8752C8.9257 14.1351 8.76215 14.0472 8.6442 13.7675Z" fill="#CD2355"/>
<path d="M9.91741 15.7132C9.70144 15.6586 9.50804 15.5377 9.36449 15.3674C9.22094 15.197 9.13448 14.9859 9.11731 14.7639C9.1836 13.2214 11.4066 15.976 9.91741 15.7132Z" fill="#CD2355"/>
<path d="M9.96266 13.7922C9.58987 13.577 9.49122 13.05 9.74232 12.615C9.99342 12.1801 10.4992 12.002 10.872 12.2173C11.2448 12.4325 11.3434 12.9595 11.0923 13.3945C10.8412 13.8294 10.3354 14.0075 9.96266 13.7922Z" fill="#CD2355"/>
<path d="M12.1221 16.3022C11.9409 16.4326 11.7233 16.5028 11.5 16.5028C11.2768 16.5028 11.0591 16.4326 10.878 16.3022C10.5086 16.0471 10.8802 15.7536 11.5 15.7536C12.1199 15.7536 12.4915 16.0471 12.1221 16.3022Z" fill="#CD2355"/>
<path d="M11.4999 15.3671C11.9778 15.3671 12.3653 15.035 12.3653 14.6254C12.3653 14.2158 11.9778 13.8837 11.4999 13.8837C11.0221 13.8837 10.6346 14.2158 10.6346 14.6254C10.6346 15.035 11.0221 15.3671 11.4999 15.3671Z" fill="#CD2355"/>
<path d="M11.9077 13.3945C11.6566 12.9595 11.7553 12.4325 12.1281 12.2173C12.5009 12.002 13.0066 12.1801 13.2577 12.615C13.5088 13.05 13.4102 13.577 13.0374 13.7922C12.6646 14.0075 12.1588 13.8294 11.9077 13.3945Z" fill="#CD2355"/>
<path d="M13.0826 15.7132C11.5934 15.976 13.8164 13.2214 13.8827 14.7639C13.8656 14.9859 13.7791 15.197 13.6356 15.3674C13.492 15.5377 13.2986 15.6586 13.0826 15.7132Z" fill="#CD2355"/>
<path d="M14.3559 13.7675C14.2379 14.0472 14.0744 14.1351 13.9436 13.8752C13.7944 13.5451 13.762 13.174 13.8516 12.823C13.9221 12.5685 14.0999 12.5566 14.2764 12.857C14.3561 12.9935 14.4045 13.1459 14.4183 13.3033C14.432 13.4608 14.4107 13.6193 14.3559 13.7675Z" fill="#CD2355"/>
<path opacity="0.5" d="M20 8V17" stroke="#9495A4" stroke-width="0.5" stroke-linecap="round"/>
</svg>
